PathFileType	4	(X/Y/Z)	s10c0302.trc
DataRate	CameraRate	NumFrames	NumMarkers	Units	OrigDataRate	OrigDataStartFrame	OrigNumFrames
200	200	4	50	mm	200	0	2000
Frame#	Time	racr			lacr			c7			jug			rlel			rdr			llel			ldr			s2			lic			ric			lasi			rasi			rpsi			lpsi			rgt			lgt			rth1			rth2			rth3			rth4			rlfc			rmfc			rsh1			rsh2			rsh3			rsh4			rlmal			rmmal			rcal			rtoe			rmt5			lth1			lth2			lth4			lth3			llfc			lmfc			llmal			lmmal			lcal			lmt5			lsh1			lsh2			lsh3			lsh4			ltoe			SBIKE			LBIKE			RBIKE			
		X1	Y1	Z1	X2	Y2	Z2	X3	Y3	Z3	X4	Y4	Z4	X5	Y5	Z5	X6	Y6	Z6	X7	Y7	Z7	X8	Y8	Z8	X9	Y9	Z9	X10	Y10	Z10	X11	Y11	Z11	X12	Y12	Z12	X13	Y13	Z13	X14	Y14	Z14	X15	Y15	Z15	X16	Y16	Z16	X17	Y17	Z17	X18	Y18	Z18	X19	Y19	Z19	X20	Y20	Z20	X21	Y21	Z21	X22	Y22	Z22	X23	Y23	Z23	X24	Y24	Z24	X25	Y25	Z25	X26	Y26	Z26	X27	Y27	Z27	X28	Y28	Z28	X29	Y29	Z29	X30	Y30	Z30	X31	Y31	Z31	X32	Y32	Z32	X33	Y33	Z33	X34	Y34	Z34	X35	Y35	Z35	X36	Y36	Z36	X37	Y37	Z37	X38	Y38	Z38	X39	Y39	Z39	X40	Y40	Z40	X41	Y41	Z41	X42	Y42	Z42	X43	Y43	Z43	X44	Y44	Z44	X45	Y45	Z45	X46	Y46	Z46	X47	Y47	Z47	X48	Y48	Z48	X49	Y49	Z49	X50	Y50	Z50	
0	0.0000	407.058574	1305.396339	-56.464162	413.394607	1317.108825	-374.060133	383.337311	1348.734782	-216.047402	395.504332	1207.562594	-213.654992	515.877483	1065.275144	-4.790218	645.005971	877.071933	-51.411661	511.684365	1064.863923	-447.987290	644.239105	882.480597	-413.732651	-112.915764	1106.630189	-207.215864	49.373404	1098.026640	-361.247606	74.349485	1094.734847	-82.936603	66.064782	1008.959922	-339.413390	64.380374	1017.656990	-80.742058	-61.225588	1156.611099	-155.600746	-55.109016	1153.279323	-264.588859	-56.329671	1016.784855	-13.349392	-75.644277	988.137757	-406.870370	32.409505	924.289607	16.611376	121.088962	920.217203	9.440648	193.310248	873.908080	7.579915	131.119216	956.205334	-0.298234	304.483390	834.693198	-8.252505	307.800320	830.210794	-126.553681	254.128558	726.743226	4.148733	259.594624	640.102796	-16.627705	221.337182	564.494935	-33.168551	291.011514	639.830254	-38.639481	203.028430	466.406870	-60.281776	229.059421	490.044833	-136.295325	153.055746	447.341284	-109.357525	393.521311	422.151707	-105.134028	311.000245	396.338658	-43.161700	-10.732343	875.166126	-435.743815	65.671141	833.069926	-434.143620	91.146937	858.154035	-424.205321	110.320753	755.859347	-435.390672	185.484497	670.244257	-425.955256	199.796030	662.068777	-306.989739	-45.547996	377.638885	-379.387162	-24.703021	373.472213	-301.447899	-102.481234	378.396507	-330.541318	11.462162	246.627023	-399.942677	93.610280	584.039160	-440.047010	71.776069	500.024699	-419.312832	7.697263	441.270378	-405.298472	100.117782	489.601238	-396.788442	98.079672	226.219273	-346.457288	-217.737862	833.105096	-214.459081	-104.027147	81.686164	-417.366968	-103.472890	81.280965	-17.957003	
1	0.0050	407.104999	1305.398195	-56.456459	413.392620	1317.084973	-374.113012	383.320789	1348.727202	-216.013086	395.560317	1207.501069	-213.693226	515.904406	1065.290428	-4.745001	645.027331	877.047501	-51.417282	511.606020	1064.817887	-448.105289	644.239406	882.482769	-413.683757	-112.928338	1106.622719	-207.222974	49.354919	1098.009964	-361.270331	74.423946	1094.741908	-82.867214	66.042656	1008.948536	-339.423924	64.089618	1017.339737	-81.154576	-61.248494	1156.599039	-155.593053	-55.074029	1153.267708	-264.594539	-56.260356	1016.768241	-13.353162	-75.678620	988.141037	-406.875434	32.504865	924.258805	16.617787	121.167537	920.201670	9.431302	193.399196	873.877270	7.546153	131.221895	956.173656	-0.317200	304.584204	834.642565	-8.282166	307.816702	830.185108	-126.626160	254.202507	726.730696	4.143104	259.619669	640.083212	-16.644066	221.359755	564.490875	-33.178399	291.055273	639.812355	-38.682278	203.036226	466.394435	-60.258005	229.004969	490.022553	-136.305481	153.038919	447.329148	-109.326179	393.505765	422.196905	-105.105415	311.029873	396.340923	-43.131193	-10.766605	875.159855	-435.738947	65.649074	833.073361	-434.176250	91.138187	858.139389	-424.223603	110.311018	755.876090	-435.422417	185.467438	670.251259	-426.017220	199.812374	662.084070	-307.016991	-45.528348	377.624683	-379.390642	-24.717584	373.505628	-301.457725	-102.424547	378.400899	-330.532540	11.480240	246.620949	-399.961955	93.592006	584.025594	-440.070920	71.759306	500.060384	-419.357050	7.685866	441.270640	-405.311718	100.107296	489.609994	-396.808069	98.096324	226.219504	-346.475583	-217.753246	833.109057	-214.460935	-103.991751	81.695262	-417.337426	-103.448413	81.281244	-17.960336	
2	0.0100	407.133678	1305.389273	-56.497400	413.400856	1317.061615	-374.163736	383.325139	1348.718681	-216.043395	395.628219	1207.433429	-213.697070	515.913426	1065.287223	-4.754482	645.024315	877.057273	-51.396646	511.520377	1064.786395	-448.217691	644.233943	882.482980	-413.694094	-112.915501	1106.624126	-207.203172	49.342204	1097.999891	-361.252246	74.450460	1094.705892	-82.868742	66.037744	1008.953317	-339.417523	64.672974	1017.743414	-80.478447	-61.222756	1156.595415	-155.581331	-55.098558	1153.272423	-264.571009	-56.233313	1016.753761	-13.338943	-75.688595	988.143685	-406.868014	32.553719	924.234063	16.591878	121.216937	920.161634	9.413564	193.454032	873.838276	7.510803	131.271075	956.125638	-0.331016	304.627336	834.615416	-8.335192	307.834939	830.113072	-126.687153	254.213090	726.717303	4.134979	259.614716	640.081167	-16.691029	221.335894	564.482845	-33.189069	291.043658	639.798925	-38.701671	203.007145	466.375522	-60.265016	228.958443	490.017707	-136.341059	152.999839	447.284596	-109.334368	393.488870	422.223664	-105.106807	310.997949	396.356648	-43.119322	-10.790586	875.174655	-435.748688	65.629570	833.084312	-434.186985	91.114390	858.146113	-424.239291	110.299570	755.897834	-435.455175	185.427913	670.280024	-426.068400	199.792720	662.099425	-307.062678	-45.501758	377.625113	-379.399272	-24.644677	373.457471	-301.467411	-102.393182	378.389228	-330.527205	11.490422	246.595022	-399.948613	93.548973	584.037426	-440.092571	71.749028	500.059280	-419.405735	7.683934	441.253057	-405.322825	100.112163	489.613157	-396.839472	98.104033	226.188341	-346.486288	-217.753611	833.109166	-214.465147	-103.998792	81.686338	-417.343784	-103.429869	81.287473	-17.947603	
3	0.0150	407.112112	1305.383712	-56.556028	413.397977	1317.041253	-374.231706	381.945872	1348.703237	-215.761353	395.663434	1207.378782	-213.759967	515.895546	1065.274880	-4.758851	645.027242	877.053443	-51.391770	511.464151	1064.849943	-448.233382	644.217087	882.518617	-413.771816	-112.908430	1106.613512	-207.201384	49.341352	1098.004284	-361.252819	74.588299	1094.789791	-82.932826	66.116092	1009.179890	-339.678228	64.653912	1017.741488	-80.526645	-61.219583	1156.601241	-155.591512	-55.133464	1153.281806	-264.575997	-56.214978	1016.731022	-13.349394	-75.698126	988.134239	-406.863609	32.562367	924.219350	16.571896	121.440370	920.039833	9.383508	193.061728	873.279177	6.732471	131.277701	956.073761	-0.386465	304.618027	834.570111	-8.415745	307.856442	830.089182	-126.713921	254.209161	726.713786	4.085761	259.777400	640.278447	-16.781167	221.295889	564.462534	-33.184731	290.945400	639.887143	-38.694829	202.827936	466.472644	-60.194317	229.124938	490.208800	-136.164486	152.946306	447.245578	-109.330202	393.437510	422.255418	-105.130314	310.835654	396.435915	-43.115179	-10.824303	875.173885	-435.760412	65.600274	833.091851	-434.215089	90.975799	858.353643	-424.405821	110.818224	756.306834	-435.567389	185.408226	670.289645	-426.113120	199.581739	662.176032	-307.041457	-45.471604	377.614650	-379.407381	-24.604216	373.431635	-301.472922	-102.365623	378.397051	-330.552153	11.498039	246.590436	-399.960407	93.517297	584.033735	-440.120309	71.745579	500.052700	-419.439716	7.769777	441.038748	-405.101038	100.008378	489.817615	-396.597380	98.126855	226.094240	-346.457905	-217.753175	833.109527	-214.466765	-104.022734	81.710440	-417.348390	-103.467656	81.293026	-17.952694	
